#!OML:ASF F:\VICON\USERDATA\INSTALL\rory3\rory3.ASF
:FULLY-SPECIFIED
:DEGREES
3096
root -11.0073 17.6082 14.0105 -364.283 13.766 360.153
lowerback 10.3064 0.966664 -3.17708
upperback 1.13194 0.898579 -0.647905
thorax -4.63823 0.499953 0.986397
lowerneck -20.9398 -0.759727 -8.82833
upperneck 30.333 0.930964 4.00576
head 13.7504 -0.0336145 3.29147
rclavicle -1.92076e-014 -9.54166e-015
rhumerus -36.4266 -7.98834 -80.9224
rradius 27.8135
rwrist 5.91478
rhand -17.2772 9.54962
rfingers 7.12502
rthumb 8.96784 -20.2398
lclavicle -1.92076e-014 -9.54166e-015
lhumerus -34.0346 -4.51629 87.723
lradius 43.7169
lwrist -1.67254
lhand -18.3112 25.3159
lfingers 7.12502
lthumb 7.97003 55.1456
rfemur -17.5049 -2.56302 14.5691
rtibia 61.3101
rfoot -10.8267 -6.15457
rtoes -1.03079
lfemur -5.50014 2.66431 -31.9447
ltibia 21.1195
lfoot -7.04797 -1.21454
ltoes 17.8764
3097
root -11.0156 17.5934 14.0798 -364.154 15.1814 360.272
lowerback 10.3333 0.902871 -3.29761
upperback 1.11119 0.798951 -0.65282
thorax -4.6724 0.453892 1.06273
lowerneck -20.9789 -0.941583 -9.13994
upperneck 30.4365 0.692182 4.30005
head 13.8207 -0.132973 3.42771
rclavicle 7.03449e-014 -2.0276e-014
rhumerus -36.5369 -7.63948 -80.9509
rradius 27.8129
rwrist 5.36085
rhand -17.5641 9.54183
rfingers 7.12502
rthumb 8.69105 -20.2593
lclavicle 7.03449e-014 -2.0276e-014
lhumerus -34.0339 -5.06472 87.8961
lradius 44.2947
lwrist -1.448
lhand -18.1809 25.6938
lfingers 7.12502
lthumb 8.09574 55.5187
rfemur -17.9022 -1.9782 14.1475
rtibia 60.4982
rfoot -11.9772 -6.15161
rtoes -2.12554
lfemur -5.55291 2.16288 -32.0851
ltibia 21.7032
lfoot -7.56084 -1.98818
ltoes 17.9714
3098
root -11.0217 17.5822 14.1546 -364.007 16.5384 360.438
lowerback 10.2766 0.840713 -3.50002
upperback 1.11493 0.697286 -0.63991
thorax -4.63506 0.407331 1.2052
lowerneck -21.0283 -1.10049 -9.40924
upperneck 30.5409 0.498937 4.51537
head 13.8925 -0.218916 3.53311
rclavicle 6.73135e-014 1.03368e-014
rhumerus -36.6012 -7.21228 -80.9665
rradius 27.7416
rwrist 4.94331
rhand -17.8959 9.68357
rfingers 7.12502
rthumb 8.37083 -20.1306
lclavicle 6.73135e-014 1.03368e-014
lhumerus -34.0592 -5.5215 88.0692
lradius 44.9174
lwrist -1.24843
lhand -18.0741 26.2505
lfingers 7.12502
lthumb 8.19879 56.0714
rfemur -18.2725 -1.30789 13.682
rtibia 59.6297
rfoot -12.3865 -6.32776
rtoes -3.12291
lfemur -5.53852 1.73944 -32.2564
ltibia 22.1809
lfoot -8.00454 -2.77536
ltoes 17.616
3099
root -11.0296 17.5776 14.2299 -363.875 17.9317 360.366
lowerback 10.2418 0.747308 -3.4886
upperback 1.0619 0.578177 -0.576646
thorax -4.66603 0.350054 1.28164
lowerneck -21.094 -1.17805 -9.50483
upperneck 30.7724 0.428159 4.54371
head 14.0149 -0.261231 3.55901
rclavicle 8.54277e-014 9.54166e-015
rhumerus -36.7786 -7.15811 -80.822
rradius 27.7356
rwrist 5.02237
rhand -17.8707 9.69252
rfingers 7.12502
rthumb 8.39513 -20.1206
lclavicle 8.54277e-014 9.54166e-015
lhumerus -34.1151 -5.83295 88.174
lradius 45.4187
lwrist -1.25429
lhand -17.9372 26.4984
lfingers 7.12502
lthumb 8.33096 56.3141
rfemur -18.6116 -0.614844 13.5088
rtibia 58.6606
rfoot -12.2018 -6.35663
rtoes -3.56192
lfemur -5.51177 1.29207 -32.1485
ltibia 22.5334
lfoot -8.37826 -3.64299
ltoes 17.4625
3100
root -11.038 17.5711 14.3039 -363.764 19.4025 360.37
lowerback 10.2908 0.669291 -3.52321
upperback 0.975076 0.467606 -0.556663
thorax -4.77938 0.299143 1.3368
lowerneck -21.055 -1.14567 -9.21713
upperneck 30.9974 0.494433 4.19602
head 14.1029 -0.251569 3.38735
rclavicle 7.9899e-014 -7.95139e-016
rhumerus -37.1251 -7.21897 -80.6562
rradius 27.8736
rwrist 4.96717
rhand -17.8686 9.50523
rfingers 7.12502
rthumb 8.39714 -20.3078
lclavicle 7.9899e-014 -7.95139e-016
lhumerus -34.1766 -6.13016 88.2528
lradius 45.842
lwrist -1.52777
lhand -17.536 26.5342
lfingers 7.12502
lthumb 8.71813 56.3341
rfemur -18.8377 -0.0545644 13.2374
rtibia 57.622
rfoot -12.2027 -6.02941
rtoes -5.85561
lfemur -5.42549 0.836993 -32.1115
ltibia 22.841
lfoot -8.75632 -4.57143
ltoes 17.6328
3101
root -11.0458 17.5598 14.3755 -363.61 20.8111 360.503
lowerback 10.2913 0.633855 -3.66089
upperback 0.976853 0.40523 -0.562723
thorax -4.77567 0.271253 1.41685
lowerneck -21.034 -1.09416 -8.85233
upperneck 31.0112 0.603962 3.71911
head 14.1007 -0.226428 3.14967
rclavicle 5.25661e-014 -2.38542e-015
rhumerus -37.3263 -7.34751 -80.4637
rradius 27.9878
rwrist 4.85928
rhand -17.7897 9.50742
rfingers 7.12502
rthumb 8.47327 -20.3026
lclavicle 5.25661e-014 -2.38542e-015
lhumerus -34.0685 -6.51383 88.3604
lradius 46.2289
lwrist -1.57629
lhand -17.2622 26.7644
lfingers 7.12502
lthumb 8.98234 56.5532
rfemur -19.0505 0.500667 12.8231
rtibia 56.5253
rfoot -12.4587 -5.84228
rtoes -8.82842
lfemur -5.33257 0.393109 -32.2013
ltibia 23.1254
lfoot -9.09452 -5.48491
ltoes 18.2215
3102
root -11.0509 17.5561 14.4476 -363.49 22.1125 360.428
lowerback 10.2165 0.606702 -3.63237
upperback 1.02743 0.382426 -0.467393
thorax -4.68011 0.258418 1.50423
lowerneck -20.9585 -1.03935 -8.6592
upperneck 30.8176 0.764049 3.26868
head 13.9933 -0.190598 2.95457
rclavicle -6.21202e-017 3.57812e-015
rhumerus -37.4034 -7.5544 -80.1653
rradius 28.1214
rwrist 4.92916
rhand -17.5775 9.48464
rfingers 7.12502
rthumb 8.67812 -20.317
lclavicle -6.21202e-017 3.57812e-015
lhumerus -33.9011 -6.80188 88.5044
lradius 46.5825
lwrist -1.59565
lhand -17.8247 26.1298
lfingers 7.12502
lthumb 8.43948 55.9412
rfemur -19.3106 1.23062 12.6392
rtibia 55.3658
rfoot -12.5072 -5.64366
rtoes -8.54021
lfemur -5.27755 0.000963856 -32.0665
ltibia 23.3609
lfoot -9.37294 -6.33229
ltoes 18.3856
3103
root -11.0546 17.5605 14.52 -363.418 23.4214 360.187
lowerback 10.1306 0.555479 -3.46663
upperback 1.04456 0.34369 -0.34116
thorax -4.61187 0.2361 1.54861
lowerneck -20.951 -1.0137 -8.53925
upperneck 30.7431 0.868427 2.95984
head 13.9564 -0.170738 2.82523
rclavicle -1.35671e-014 -3.97569e-016
rhumerus -37.4602 -7.70995 -79.9032
rradius 28.2465
rwrist 5.2055
rhand -17.8381 9.50205
rfingers 7.12502
rthumb 8.4266 -20.3098
lclavicle -1.35671e-014 -3.97569e-016
lhumerus -33.8134 -7.03599 88.6139
lradius 46.9392
lwrist -1.63188
lhand -18.9652 24.7522
lfingers 7.12502
lthumb 7.33877 54.6049
rfemur -19.5941 2.02707 12.6056
rtibia 54.156
rfoot -12.4788 -5.05773
rtoes -6.30579
lfemur -5.23969 -0.501475 -31.7682
ltibia 23.5672
lfoot -9.62823 -7.09936
ltoes 18.1654
3104
root -11.0579 17.5608 14.5937 -363.308 24.7187 360.145
lowerback 10.125 0.554229 -3.42853
upperback 0.998601 0.34709 -0.313388
thorax -4.65698 0.238649 1.5555
lowerneck -20.9874 -1.06243 -8.60517
upperneck 30.8828 0.804225 3.0541
head 14.0291 -0.19402 2.86872
rclavicle 2.52084e-014 -7.55382e-015
rhumerus -37.6605 -8.03146 -79.5981
rradius 28.342
rwrist 5.76076
rhand -18.2862 9.65192
rfingers 7.12502
rthumb 7.99413 -20.1769
lclavicle 2.52084e-014 -7.55382e-015
lhumerus -33.8439 -7.36485 88.7144
lradius 47.2475
lwrist -1.50123
lhand -19.7244 24.2913
lfingers 7.12502
lthumb 6.60588 54.1682
rfemur -19.8142 2.73701 12.3575
rtibia 52.9135
rfoot -12.8532 -4.61286
rtoes -6.1976
lfemur -5.11975 -1.13077 -31.6873
ltibia 23.7413
lfoot -9.87323 -7.68908
ltoes 17.8469
3105
root -11.0581 17.5577 14.6681 -363.171 26.0024 360.151
lowerback 10.1352 0.552667 -3.41507
upperback 0.934996 0.345715 -0.295583
thorax -4.7292 0.239803 1.56641
lowerneck -21.133 -1.0884 -8.7679
upperneck 31.1648 0.735561 3.40342
head 14.185 -0.198124 3.03821
rclavicle 4.6702e-014 -1.86858e-014
rhumerus -37.8351 -8.22914 -79.3648
rradius 28.361
rwrist 6.04476
rhand -18.3126 9.47467
rfingers 7.12502
rthumb 7.96865 -20.3551
lclavicle 4.6702e-014 -1.86858e-014
lhumerus -33.8912 -7.57878 88.756
lradius 47.5066
lwrist -1.43853
lhand -19.6853 24.7093
lfingers 7.12502
lthumb 6.64364 54.5851
rfemur -19.9841 3.4949 12.0822
rtibia 51.6287
rfoot -13.2779 -4.54438
rtoes -7.64322
lfemur -4.96519 -1.87616 -31.6777
ltibia 23.8718
lfoot -10.0893 -8.14218
ltoes 17.5657
3106
root -11.0559 17.5573 14.7429 -363.112 27.2273 360.025
lowerback 10.0726 0.52631 -3.38597
upperback 0.94786 0.323557 -0.164904
thorax -4.68018 0.228688 1.68981
lowerneck -21.0803 -1.08371 -8.88298
upperneck 31.0665 0.763708 3.46477
head 14.1275 -0.185634 3.08482
rclavicle 6.42571e-014 -8.34896e-015
rhumerus -37.7552 -8.01571 -79.2096
rradius 28.2732
rwrist 5.84906
rhand -18.1459 9.21535
rfingers 7.12502
rthumb 8.12953 -20.6083
lclavicle 6.42571e-014 -8.34896e-015
lhumerus -33.8286 -7.50538 88.7971
lradius 47.6819
lwrist -1.41064
lhand -19.509 24.4332
lfingers 7.12502
lthumb 6.81377 54.3035
rfemur -20.1222 4.39433 11.9363
rtibia 50.2972
rfoot -13.539 -4.39595
rtoes -8.91837
lfemur -4.75392 -2.73165 -31.5442
ltibia 23.9287
lfoot -10.2988 -8.44287
ltoes 17.0815
